<svg height="512pt" viewBox="-27 0 512 512" width="512pt" xmlns="http://www.w3.org/2000/svg"><path d="m374 10h-344c-11.046875 0-20 8.953125-20 20v452c0 11.046875 8.953125 20 20 20h344c11.046875 0 20-8.953125 20-20v-452c0-11.046875-8.953125-20-20-20zm0 0" fill="#fff"/><path d="m93.976562 240.976562v15.023438h248.023438v-126.753906l-79.980469 79.980468-31.976562-31.976562-36.171875-36.167969zm0 0" fill="#ade5ff"/><path d="m370.5 311.789062c-44.164062 8.621094-77.5 47.519532-77.5 94.210938s33.335938 85.589844 77.5 94.210938c44.164062-8.621094 77.5-47.519532 77.5-94.210938s-33.335938-85.589844-77.5-94.210938zm0 0" fill="#ff5d5d"/><path d="m407.667969 406c0 30.742188-24.925781 55.667969-55.667969 55.667969s-55.667969-24.925781-55.667969-55.667969 24.925781-55.667969 55.667969-55.667969 55.667969 24.925781 55.667969 55.667969zm0 0" fill="#fff"/><path d="m372 406c0 11.046875-8.953125 20-20 20s-20-8.953125-20-20 8.953125-20 20-20 20 8.953125 20 20zm0 0" fill="#ff5d5d"/><path d="m256 492h-226c-5.515625 0-10-4.484375-10-10v-452c0-5.515625 4.484375-10 10-10h344c5.515625 0 10 4.484375 10 10v199.441406c0 5.523438 4.476562 10 10 10s10-4.476562 10-10v-199.441406c0-16.542969-13.457031-30-30-30h-344c-16.542969 0-30 13.457031-30 30v452c0 16.542969 13.457031 30 30 30h226c5.523438 0 10-4.476562 10-10s-4.476562-10-10-10zm0 0"/><path d="m394 254c-2.628906 0-5.210938 1.070312-7.070312 2.929688-1.859376 1.859374-2.929688 4.441406-2.929688 7.070312s1.070312 5.210938 2.929688 7.070312c1.859374 1.859376 4.441406 2.929688 7.070312 2.929688s5.210938-1.070312 7.070312-2.929688c1.859376-1.859374 2.929688-4.441406 2.929688-7.070312s-1.070312-5.210938-2.929688-7.070312c-1.859374-1.859376-4.441406-2.929688-7.070312-2.929688zm0 0"/><path d="m62 74c2.628906 0 5.210938-1.070312 7.070312-2.929688 1.859376-1.859374 2.929688-4.441406 2.929688-7.070312s-1.070312-5.210938-2.929688-7.070312c-1.859374-1.859376-4.441406-2.929688-7.070312-2.929688s-5.210938 1.070312-7.070312 2.929688c-1.859376 1.859374-2.929688 4.441406-2.929688 7.070312s1.070312 5.210938 2.929688 7.070312c1.859374 1.859376 4.441406 2.929688 7.070312 2.929688zm0 0"/><path d="m349.71875 71.71875c3.902344-3.90625 3.902344-10.238281 0-14.144531-3.90625-3.902344-10.238281-3.902344-14.144531 0l-105.53125 105.53125-61.074219-61.074219c-3.90625-3.902344-10.238281-3.902344-14.144531 0l-82.824219 82.824219v-80.550781c0-5.523438-4.476562-10-10-10s-10 4.476562-10 10v151.695312c0 5.523438 4.476562 10 10 10h280c5.523438 0 10-4.476562 10-10v-128c0-5.523438-4.476562-10-10-10s-10 4.476562-10 10v118h-36v-120.566406zm-129.71875 174.28125h-36v-100.648438l36 36zm-58.105469-122.753906 2.105469 2.105468v120.648438h-36v-88.859375zm-89.894531 89.898437 36-36v68.855469h-36zm204 32.855469h-36v-64.566406l36-36zm0 0"/><path d="m153 294h-91c-5.523438 0-10 4.476562-10 10s4.476562 10 10 10h91c5.523438 0 10-4.476562 10-10s-4.476562-10-10-10zm0 0"/><path d="m153 342h-91c-5.523438 0-10 4.476562-10 10s4.476562 10 10 10h91c5.523438 0 10-4.476562 10-10s-4.476562-10-10-10zm0 0"/><path d="m153 390h-91c-5.523438 0-10 4.476562-10 10s4.476562 10 10 10h91c5.523438 0 10-4.476562 10-10s-4.476562-10-10-10zm0 0"/><path d="m153 438h-91c-5.523438 0-10 4.476562-10 10s4.476562 10 10 10h91c5.523438 0 10-4.476562 10-10s-4.476562-10-10-10zm0 0"/><path d="m352 300c-25.632812 0-49.164062 9.144531-67.515625 24.34375l-.152344-.152344v-21.496094c0-5.523437-4.476562-10-10-10-5.519531 0-10 4.476563-10 10v1.496094l-8.566406-8.570312c-3.90625-3.902344-10.234375-3.902344-14.144531 0-3.902344 3.90625-3.902344 10.238281 0 14.144531l8.570312 8.566406h-1.496094c-5.523437 0-10 4.480469-10 10 0 5.523438 4.476563 10 10 10h21.496094l.152344.152344c-15.199219 18.351563-24.34375 41.882813-24.34375 67.515625 0 58.449219 47.550781 106 106 106s106-47.550781 106-106-47.550781-106-106-106zm0 192c-47.421875 0-86-38.578125-86-86 0-20.113281 6.960938-38.621094 18.570312-53.285156l14.253907 14.25c-8.054688 10.941406-12.824219 24.4375-12.824219 39.035156 0 36.394531 29.605469 66 66 66s66-29.605469 66-66-29.605469-66-66-66c-14.597656 0-28.09375 4.769531-39.035156 12.824219l-14.25-14.253907c14.664062-11.609374 33.171875-18.570312 53.285156-18.570312 47.421875 0 86 38.578125 86 86s-38.578125 86-86 86zm-27.066406-98.925781c-1.878906 3.917969-2.933594 8.300781-2.933594 12.925781 0 16.542969 13.457031 30 30 30s30-13.457031 30-30-13.457031-30-30-30c-4.625 0-9.007812 1.054688-12.925781 2.933594l-11.734375-11.734375c7.132812-4.550781 15.589844-7.199219 24.660156-7.199219 25.363281 0 46 20.636719 46 46s-20.636719 46-46 46-46-20.636719-46-46c0-9.070312 2.648438-17.527344 7.199219-24.660156zm17.710937 13.570312c2.5625 0 5.121094-.976562 7.074219-2.925781 2.105469-2.109375 3.066406-4.925781 2.898438-7.6875 5.226562.320312 9.382812 4.664062 9.382812 9.96875 0 5.515625-4.484375 10-10 10-5.304688 0-9.648438-4.15625-9.96875-9.382812.203125.011718.410156.027343.613281.027343zm0 0"/></svg>